<?xml version="1.0" standalone="no"?>
<!DOCTYPE svg PUBLIC "-//W3C//DTD SVG 20010904//EN"
 "http://www.w3.org/TR/2001/REC-SVG-20010904/DTD/svg10.dtd">
<svg version="1.0" xmlns="http://www.w3.org/2000/svg"
 width="225.000000pt" height="225.000000pt" viewBox="0 0 225.000000 225.000000"
 preserveAspectRatio="xMidYMid meet">

<g transform="translate(0.000000,225.000000) scale(0.100000,-0.100000)"
fill="#000000" stroke="none">
<path d="M975 1984 c-358 -37 -641 -166 -720 -329 -28 -56 -35 -321 -10 -394
49 -149 257 -273 559 -333 148 -30 467 -32 621 -4 286 52 493 163 567 306 21
41 23 60 26 204 l3 159 -31 63 c-70 142 -286 259 -570 308 -92 16 -364 28
-445 20z m479 -144 c254 -54 429 -162 450 -274 38 -201 -439 -385 -896 -346
-357 30 -615 143 -659 289 -43 144 177 290 526 346 134 21 448 14 579 -15z"/>
<path d="M880 1699 l0 -41 99 3 c55 2 103 1 107 -3 4 -4 -1 -19 -10 -32 -9
-14 -16 -28 -16 -31 0 -10 117 -5 141 7 24 11 49 41 94 111 l17 27 -216 0
-216 0 0 -41z"/>
<path d="M1368 1663 c-23 -3 -38 -10 -38 -17 0 -7 -19 -26 -42 -41 -36 -24
-62 -30 -184 -45 -173 -22 -242 -41 -274 -76 -14 -15 -18 -24 -10 -21 64 25
138 38 282 50 162 14 168 16 237 53 66 35 71 41 71 71 0 18 -1 32 -2 31 -2 -1
-20 -3 -40 -5z"/>
<path d="M917 1401 c-31 -48 -57 -91 -57 -95 0 -3 113 -6 250 -6 l250 0 0 55
0 55 -125 0 c-69 0 -125 2 -125 4 0 3 9 21 21 40 l21 36 -89 0 -89 0 -57 -89z"/>
<path d="M236 1078 c-10 -38 -7 -170 5 -212 15 -54 106 -142 194 -188 431
-224 1237 -175 1506 92 68 67 83 112 78 233 -2 47 -7 88 -10 92 -4 3 -33 -21
-66 -54 -269 -269 -1048 -321 -1499 -99 -42 20 -93 57 -132 96 -36 34 -66 62
-67 62 -1 0 -5 -10 -9 -22z"/>
<path d="M236 708 c-3 -13 -6 -58 -6 -101 0 -126 37 -189 156 -267 120 -78
298 -133 517 -161 143 -17 453 -6 578 20 278 60 455 154 514 275 25 50 27 63
23 150 -1 52 -6 97 -9 101 -4 3 -31 -18 -60 -48 -132 -131 -385 -217 -696
-236 -405 -25 -780 67 -946 231 -32 32 -60 58 -62 58 -1 0 -5 -10 -9 -22z"/>
</g>
</svg>
